<svg version="1" xmlns="http://www.w3.org/2000/svg" width="346.667" height="346.667" viewBox="0 0 260.000000 260.000000"><path d="M109 1.4C95.4 3.8 85.7 7 73.5 12.9 37.3 30.6 12.9 61.1 2.9 101.4c-2.6 10.4-3.6 34-2 45.7 3 21.3 11.9 43.3 24 59.7C50.3 241 87.8 260 130 260c35.1 0 66.2-12.7 91.1-37.3 24.2-23.7 37.3-53.4 38.6-86.8.9-24.1-2.8-42.2-12.6-62.4-17.7-36.2-48.1-60.4-88.5-70.6C148.2.2 120.3-.6 109 1.4zm44.9 3.1c38.7 7.4 71.9 32.6 90.1 68.1 10.4 20.4 15.4 46.3 13.1 68.4-3.4 32.7-16.3 59.6-38.8 81-4.3 4.2-9.2 8.5-10.9 9.7l-3.1 2.2-6.8-5.8c-15.8-13.7-36.1-22-59.8-24.6l-5.7-.6.2-31.1.3-31.1 18.1-3.2c20.4-3.6 26.6-5.9 33.2-12.4 6.9-6.8 9.5-13.8 13.2-35.9 1.8-10.6 3-19.6 2.7-19.9-.6-.5-21 2.6-34.6 5.4-17.9 3.5-28 13.6-31.5 31.4-1.4 7.1-1.4 6.1-1.5-25.4-.1-32-.1-32.7-2.1-32.7-1.9 0-2 .7-2.1 17.2l-.1 17.3-4.7-10c-7.9-16.5-17.6-24.2-32-25.3-6-.4-27.9 1.3-28.8 2.2-.8.7 10.1 23.4 13.2 27.8 4 5.5 11.2 10.4 18.5 12.5 4.3 1.3 7.9 1.4 17.5.9 6.6-.3 13-.9 14.3-1.2l2.2-.6v41.3l-.1 41.4-5.3-11c-10.6-21.8-20.8-26.8-48.5-24.1-7.9.8-14.5 1.7-14.8 1.9-.2.3 2.4 6.7 5.9 14.2 7.5 16.4 11.9 22 21.4 26.6 7.4 3.7 13.4 4.1 31.7 2.6l9.7-.9v22.1l-5.7.6C97.2 206.3 79.1 214 61 229.4l-5.3 4.5-3.1-2.1c-1.7-1.2-7.4-6.5-12.7-11.7C7.8 188.2-4.7 142.7 6.4 98.7c6.2-24.5 17.7-44.2 36-61.5C63.5 17.3 88.3 6.2 120 2.6c6.1-.7 26.1.4 33.9 1.9z"/></svg>